<svg width="83" height="83" viewBox="0 0 83 83" fill="none" xmlns="http://www.w3.org/2000/svg">
<path d="M81.3004 50.3816C76.29 72.4681 54.3235 86.3107 32.237 81.3005C10.1506 76.2901 -3.69211 54.3244 1.31791 32.238C6.32811 10.1514 28.2941 -3.69214 50.3806 1.31786C72.4673 6.32816 86.3107 28.2949 81.3004 50.3816Z" stroke="#2B2B2B" stroke-width="0.585822"/>
<path d="M12.1798 19.8274C12.1238 19.7932 12.0594 19.8087 12.0252 19.8647L8.62116 25.4299C8.58696 25.4859 8.60246 25.5503 8.65846 25.5846L9.00226 25.7949C9.02626 25.8095 9.05516 25.8162 9.09376 25.8069L9.76396 25.6454C9.80256 25.6361 9.82526 25.617 9.83996 25.593L12.9847 20.4516C13.0189 20.3956 13.0034 20.3312 12.9474 20.2969L12.1798 19.8274ZM12.0112 28.2945L7.40546 25.4774C7.34946 25.4432 7.33396 25.3788 7.36826 25.3228L11.0021 19.3817C11.0803 19.2538 11.2017 19.1632 11.3563 19.1259L12.4388 18.8651C12.5934 18.8278 12.7427 18.8532 12.8707 18.9315L13.5343 19.3374C13.5903 19.3716 13.6058 19.4361 13.5716 19.492L13.3955 19.7799C13.3613 19.8359 13.3768 19.9003 13.4328 19.9345L13.7766 20.1448C13.8006 20.1595 13.8295 20.1662 13.8681 20.1569L14.5383 19.9954C14.5769 19.9861 14.6058 19.9928 14.6298 20.0074L15.3494 20.4476C15.4774 20.5258 15.568 20.6472 15.6052 20.8018L15.8661 21.8843C15.9033 22.039 15.8779 22.1882 15.7997 22.3162L12.1659 28.2572C12.1316 28.3132 12.0672 28.3287 12.0112 28.2945ZM10.9214 26.9686C10.9454 26.9833 10.9742 26.99 11.0129 26.9807L11.683 26.8192C11.7217 26.8099 11.7443 26.7908 11.759 26.7668L14.9037 21.6253C14.938 21.5694 14.9225 21.5049 14.8665 21.4707L14.0989 21.0012C14.0429 20.967 13.9785 20.9825 13.9442 21.0385L10.5403 26.6037C10.506 26.6597 10.5216 26.7241 10.5775 26.7583L10.9214 26.9686ZM19.217 12.56C19.1773 12.558 19.1502 12.5699 19.1293 12.5888L15.0276 16.2981C15.0068 16.3169 14.9922 16.3427 14.9902 16.3825L14.9556 17.0709C14.9537 17.1106 14.9656 17.1377 14.9844 17.1586L15.2548 17.4575C15.2988 17.5062 15.365 17.5095 15.4136 17.4655L20.2522 13.0898C20.3009 13.0458 20.3042 12.9796 20.2602 12.9309L19.9898 12.632C19.971 12.6111 19.9452 12.5966 19.9054 12.5946L19.217 12.56ZM16.8924 20.5261L14.1073 17.4464C14.0067 17.3351 13.9541 17.1931 13.9621 17.0343L14.0179 15.9222C14.0259 15.7633 14.0925 15.6273 14.2037 15.5267L18.4444 11.6917C18.5556 11.5911 18.6976 11.5385 18.8565 11.5464L19.9686 11.6023C20.1274 11.6103 20.2634 11.6768 20.364 11.7881L23.1492 14.8678C23.1932 14.9165 23.1898 14.9827 23.1412 15.0267L22.2652 15.8188C22.2166 15.8628 22.1504 15.8595 22.1064 15.8108L21.4588 15.0948C21.44 15.0739 21.428 15.0468 21.43 15.0071L21.4646 14.3186C21.4666 14.2789 21.4547 14.2518 21.4358 14.2309L21.1655 13.932C21.1215 13.8833 21.0553 13.88 21.0066 13.924L16.1681 18.2998C16.1194 18.3438 16.1161 18.41 16.1601 18.4586L16.4304 18.7576C16.4493 18.7784 16.4751 18.793 16.5148 18.795L17.2032 18.8296C17.243 18.8315 17.2688 18.8461 17.2876 18.867L17.9352 19.583C17.9792 19.6317 17.9759 19.6979 17.9272 19.7419L17.0513 20.5341C17.0026 20.5781 16.9364 20.5747 16.8924 20.5261ZM22.3325 9.22241C22.3856 9.07241 22.4882 8.96111 22.6236 8.89651L28.9083 5.89601C28.9675 5.86771 29.03 5.88981 29.0583 5.94901L29.6882 7.26861C29.7165 7.32781 29.6944 7.39031 29.6352 7.41861L29.2715 7.59221C29.2461 7.60431 29.2167 7.60801 29.1792 7.59471L28.5294 7.36491C28.4919 7.35161 28.4625 7.35531 28.4371 7.36741L22.4907 10.2063C22.4315 10.2346 22.4094 10.297 22.4376 10.3563L22.6113 10.72C22.6234 10.7454 22.644 10.7667 22.6815 10.78L23.3313 11.0098C23.3688 11.0231 23.3894 11.0444 23.4015 11.0698L24.302 12.9561C24.3303 13.0153 24.3928 13.0374 24.452 13.0091L29.8909 10.4125C29.9162 10.4003 29.9376 10.3798 29.9508 10.3423L30.1807 9.69241C30.194 9.65501 30.2153 9.63441 30.2407 9.62231L30.6044 9.44861C30.6636 9.42041 30.7261 9.44251 30.7544 9.50171L31.3843 10.8212C31.4126 10.8804 31.3905 10.9429 31.3313 10.9712L25.0465 13.9716C24.9112 14.0362 24.7601 14.0461 24.6101 13.993L23.5604 13.6217C23.4104 13.5687 23.2991 13.466 23.2345 13.3307L21.9826 10.7085C21.918 10.5732 21.9082 10.4221 21.9612 10.2721L22.3325 9.22241ZM39.4488 3.84491C39.5136 3.83461 39.5673 3.87341 39.5777 3.93821L39.9019 5.96521C39.9093 6.01151 39.8797 6.06371 39.8349 6.08031L37.7554 6.90661C37.7028 6.93401 37.7146 7.00801 37.7731 7.01761L40.0066 7.15401C40.0544 7.15581 40.0988 7.19621 40.1062 7.24241L40.4305 9.26941C40.4408 9.33421 40.402 9.38791 40.3372 9.39821L39.4486 9.54041C39.3839 9.55071 39.3302 9.51181 39.3198 9.44711L39.1273 8.24381C39.1199 8.19761 39.0755 8.15721 39.0278 8.15541L35.9479 7.83171L35.9109 7.83761L32.707 8.34061C32.6422 8.35101 32.6034 8.40471 32.6137 8.46951L32.6774 8.86741C32.6818 8.89521 32.6955 8.92151 32.7277 8.94481L33.286 9.34911C33.3182 9.37241 33.3319 9.39871 33.3364 9.42651L33.4889 10.3798C33.4992 10.4446 33.4604 10.4983 33.3956 10.5086L32.2294 10.6952C32.1646 10.7056 32.1109 10.6667 32.1005 10.6019L31.2477 5.27071C31.2374 5.20601 31.2762 5.15231 31.341 5.14191L32.5072 4.95541C32.572 4.94501 32.6257 4.98391 32.6361 5.04871L32.7886 6.00201C32.793 6.02971 32.7882 6.05901 32.7649 6.09121L32.3606 6.64951C32.3372 6.68171 32.3324 6.71091 32.3369 6.73871L32.4005 7.13671C32.4109 7.20151 32.4646 7.24031 32.5294 7.23001L35.7318 6.71771L35.7595 6.71331L38.5925 5.43421C38.6373 5.41761 38.6669 5.36541 38.6595 5.31911L38.467 4.11591C38.4566 4.05111 38.4955 3.99741 38.5603 3.98711L39.4488 3.84491ZM52.1348 6.54851C52.1231 6.61311 52.0687 6.65091 52.0041 6.63921L49.6704 6.21801C49.6428 6.21301 49.6168 6.19881 49.5941 6.16611L49.201 5.59991C49.1783 5.56721 49.1523 5.55301 49.1246 5.54801L48.728 5.47641C48.6634 5.46481 48.609 5.50261 48.5973 5.56721L47.7632 10.1884C47.7516 10.253 47.6971 10.2908 47.6326 10.2791L46.747 10.1193C46.6825 10.1077 46.6447 10.0532 46.6563 9.98861L47.4904 5.36741C47.5021 5.30281 47.4643 5.24841 47.3997 5.23671L47.0031 5.16511C46.9754 5.16011 46.9461 5.16431 46.9134 5.18701L46.3472 5.58011C46.3145 5.60281 46.2852 5.60701 46.2575 5.60201L43.9238 5.18081C43.8593 5.16911 43.8215 5.11471 43.8331 5.05011L44.0179 4.02631C44.0296 3.96171 44.084 3.92391 44.1486 3.93551L52.2289 5.39401C52.2935 5.40561 52.3313 5.46011 52.3196 5.52471L52.1348 6.54851ZM58.5815 13.3487C58.6401 13.3783 58.7031 13.3575 58.7326 13.2989L60.1505 10.4868C60.18 10.4282 60.1593 10.3653 60.1007 10.3357L54.7777 7.65191C54.7275 7.62651 54.6562 7.64311 54.6267 7.70161L53.2088 10.5138C53.1792 10.5724 53.2083 10.6395 53.2585 10.6649L58.5815 13.3487ZM52.2593 9.89861L53.5675 7.30411C53.635 7.17011 53.7569 7.07411 53.8996 7.02011L54.9654 6.67581C55.1082 6.62181 55.259 6.63491 55.3929 6.70241L60.4983 9.27651C60.6322 9.34411 60.7408 9.46181 60.7822 9.60861L61.1392 10.6704C61.1806 10.8172 61.1675 10.9681 61.1 11.102L59.7918 13.6965C59.7243 13.8304 59.6108 13.9307 59.4681 13.9847L58.4022 14.329C58.2595 14.383 58.1002 14.3657 57.9663 14.2982L52.861 11.7241C52.727 11.6565 52.6268 11.543 52.5854 11.3962L52.2285 10.3344C52.187 10.1876 52.1918 10.0325 52.2593 9.89861ZM70.3302 19.4248C70.2829 19.4703 70.2167 19.4691 70.1712 19.4218L68.5265 17.7133C68.507 17.6931 68.4943 17.6663 68.4951 17.6266L68.5082 16.9374C68.5089 16.8976 68.4962 16.8709 68.4767 16.8506L68.1972 16.5602C68.1517 16.513 68.0854 16.5117 68.0381 16.5572L64.655 19.8139C64.6077 19.8594 64.5414 19.8582 64.4959 19.8109L63.8719 19.1626C63.8264 19.1153 63.8277 19.0491 63.8749 19.0036L67.2581 15.7469C67.3054 15.7014 67.3066 15.6351 67.2611 15.5878L66.9816 15.2975C66.9621 15.2772 66.9358 15.2634 66.8961 15.2627L66.2069 15.2496C66.1672 15.2488 66.1409 15.235 66.1214 15.2148L64.4768 13.5063C64.4313 13.4591 64.4325 13.3928 64.4798 13.3473L65.2294 12.6257C65.2767 12.5802 65.3429 12.5815 65.3884 12.6288L71.0828 18.5442C71.1283 18.5915 71.127 18.6578 71.0798 18.7033L70.3302 19.4248ZM71.6033 28.6915C71.6338 28.7496 71.697 28.7693 71.7551 28.7389L74.5444 27.2765C74.6025 27.246 74.6223 27.1828 74.5918 27.1247L71.8238 21.8449C71.7977 21.7951 71.73 21.7671 71.6719 21.7976L68.8826 23.2599C68.8245 23.2904 68.8091 23.362 68.8353 23.4118L71.6033 28.6915ZM68.4683 22.2072L71.0417 20.858C71.1746 20.7883 71.3295 20.7812 71.477 20.8202L72.5443 21.1603C72.6918 21.1994 72.8069 21.2978 72.8765 21.4306L75.5314 26.4945C75.601 26.6273 75.6209 26.7862 75.5691 26.9298L75.2418 28.001C75.19 28.1445 75.0916 28.2596 74.9588 28.3292L72.3853 29.6785C72.2525 29.7481 72.1019 29.7636 71.9544 29.7245L70.8871 29.3844C70.7396 29.3454 70.6202 29.2386 70.5506 29.1058L67.8957 24.042C67.826 23.9091 67.8106 23.7585 67.8623 23.615L68.1897 22.5437C68.2414 22.4002 68.3355 22.2768 68.4683 22.2072ZM77.1516 37.2906C77.2159 37.2777 77.2526 37.2225 77.2398 37.1582L75.9594 30.7614C75.9465 30.697 75.8914 30.6603 75.827 30.6731L75.4318 30.7522C75.4043 30.7578 75.3785 30.7725 75.3565 30.8056L74.9742 31.3791C74.9522 31.4122 74.9264 31.4269 74.8989 31.4325L74.5037 31.5116C74.4393 31.5244 74.4026 31.5796 74.4154 31.6439L75.5854 37.4893C75.5983 37.5536 75.6534 37.5904 75.7178 37.5775L77.1516 37.2906ZM71.5256 30.9605L76.8196 29.9009C76.8839 29.8881 76.9391 29.9248 76.9519 29.9892L78.3188 36.818C78.3482 36.965 78.3206 37.1139 78.2324 37.2463L77.6149 38.1728C77.5267 38.3052 77.3999 38.3879 77.2528 38.4174L76.058 38.6565C75.911 38.686 75.7621 38.6584 75.6297 38.5702L74.7031 37.9527C74.5708 37.8645 74.488 37.7376 74.4586 37.5906L73.3125 31.8647C73.2997 31.8003 73.2445 31.7636 73.1802 31.7765L71.7464 32.0634C71.6821 32.0763 71.6269 32.0396 71.614 31.9752L71.4374 31.0929C71.4246 31.0286 71.4613 30.9734 71.5256 30.9605ZM65.0818 68.66C65.0332 68.6159 65.03 68.5497 65.0741 68.5011L66.6677 66.745C66.6866 66.7242 66.7125 66.7096 66.7522 66.7077L67.4407 66.6743C67.4804 66.6724 67.5062 66.6579 67.5251 66.637L67.796 66.3386C67.8401 66.29 67.8369 66.2238 67.7883 66.1797L64.3108 63.0239C64.2622 62.9798 64.259 62.9136 64.3031 62.865L64.9077 62.1987C64.9518 62.1501 65.018 62.1469 65.0666 62.191L68.5441 65.3467C68.5927 65.3908 68.6589 65.3876 68.703 65.339L68.9739 65.0406C68.9928 65.0197 69.0047 64.9926 69.0028 64.9529L68.9694 64.2644C68.9675 64.2247 68.9794 64.1976 68.9983 64.1768L70.592 62.4206C70.6361 62.3721 70.7023 62.3688 70.7508 62.4129L71.5213 63.1121C71.5699 63.1562 71.5731 63.2224 71.529 63.271L66.0112 69.3514C65.9671 69.4 65.9009 69.4032 65.8523 69.3592L65.0818 68.66ZM56.3865 74.4187C56.3525 74.3625 56.3684 74.2982 56.4245 74.2642L62.9685 70.3051C63.0247 70.2711 63.0405 70.2067 63.0065 70.1506L62.7979 69.8058C62.7834 69.7817 62.7608 69.7625 62.7222 69.753L62.0528 69.5883C62.0142 69.5788 61.9853 69.5853 61.9613 69.5999L56.3234 73.0108C56.2673 73.0447 56.2029 73.0289 56.169 72.9727L55.7032 72.2029C55.6692 72.1467 55.6851 72.0824 55.7412 72.0484L61.8041 68.3804C61.8602 68.3464 61.876 68.282 61.8421 68.2259L61.6335 67.881C61.6189 67.857 61.5963 67.8378 61.5577 67.8283L60.8884 67.6636C60.8498 67.6541 60.8209 67.6606 60.7968 67.6751L54.6778 71.3771C54.6217 71.4111 54.5573 71.3953 54.5233 71.3391L54.0576 70.5692C54.0236 70.5131 54.0394 70.4488 54.0956 70.4148L61.1208 66.1645C61.1769 66.1306 61.2413 66.1464 61.2753 66.2025L64.0699 70.8219C64.1039 70.878 64.0881 70.9424 64.0319 70.9763L57.0067 75.2266C56.9506 75.2605 56.8862 75.2447 56.8523 75.1886L56.3865 74.4187ZM53.7959 76.268C53.7156 76.4053 53.5938 76.4953 53.4488 76.5333L46.7119 78.2983C46.6484 78.3149 46.5912 78.2815 46.5746 78.218L46.204 76.8035C46.1874 76.74 46.2208 76.6828 46.2843 76.6662L46.6742 76.5641C46.7014 76.5569 46.7309 76.5589 46.7653 76.5789L47.3603 76.9269C47.3946 76.947 47.4242 76.9489 47.4514 76.9418L53.8256 75.2718C53.8891 75.2552 53.9225 75.198 53.9059 75.1345L53.8038 74.7447C53.7966 74.7174 53.7804 74.6926 53.7461 74.6725L53.1511 74.3246C53.1168 74.3045 53.1006 74.2797 53.0934 74.2525L52.5637 72.2305C52.5471 72.167 52.4899 72.1336 52.4264 72.1502L46.5962 73.6776C46.569 73.6848 46.5442 73.7009 46.5241 73.7353L46.1762 74.3303C46.1561 74.3646 46.1313 74.3808 46.1041 74.3879L45.7142 74.4901C45.6507 74.5067 45.5935 74.4733 45.5769 74.4098L45.2063 72.9953C45.1897 72.9318 45.2231 72.8746 45.2866 72.858L52.0235 71.093C52.1686 71.055 52.3188 71.0738 52.4561 71.1541L53.4173 71.7162C53.5546 71.7965 53.6446 71.9182 53.6827 72.0633L54.419 74.8741C54.4571 75.0192 54.4383 75.1695 54.358 75.3068L53.7959 76.268ZM37.2671 78.2566C37.2651 78.3222 37.2168 78.3676 37.1512 78.3656L35.9707 78.3293C35.9052 78.3272 35.8598 78.279 35.8618 78.2134L36.0278 72.817C36.0298 72.7514 36.0781 72.706 36.1437 72.708L37.3242 72.7444C37.3897 72.7464 37.4351 72.7947 37.4331 72.8602L37.4034 73.8252C37.4026 73.8533 37.3923 73.8811 37.3634 73.9084L36.8612 74.3806C36.8322 74.4078 36.822 74.4356 36.8211 74.4637L36.8087 74.8666C36.8067 74.9322 36.8521 74.9804 36.9177 74.9825L43.4383 75.1831C43.5039 75.1851 43.5522 75.1397 43.5542 75.0741L43.5666 74.6713C43.5675 74.6432 43.559 74.6148 43.5317 74.5858L43.0595 74.0837C43.0323 74.0547 43.0238 74.0263 43.0247 73.9982L43.0544 73.0332C43.0564 72.9676 43.1047 72.9222 43.1702 72.9242L44.3507 72.9606C44.4163 72.9626 44.4617 73.0109 44.4597 73.0764L44.2936 78.4728C44.2916 78.5384 44.2433 78.5838 44.1777 78.5818L42.9973 78.5455C42.9317 78.5434 42.8863 78.4952 42.8883 78.4296L42.918 77.4646C42.9189 77.4365 42.9291 77.4087 42.9581 77.3814L43.4602 76.9093C43.4892 76.882 43.4994 76.8542 43.5003 76.8261L43.5127 76.4232C43.5147 76.3577 43.4693 76.3094 43.4037 76.3074L36.8831 76.1067C36.8175 76.1047 36.7692 76.1501 36.7672 76.2157L36.7548 76.6185C36.754 76.6466 36.7625 76.675 36.7897 76.704L37.2619 77.2062C37.2891 77.2351 37.2976 77.2635 37.2968 77.2916L37.2671 78.2566ZM27.0049 74.4361C26.9842 74.4983 27.014 74.5576 27.0762 74.5782L33.2678 76.6332C33.3301 76.6539 33.3894 76.6241 33.41 76.5619L33.537 76.1793C33.5458 76.1527 33.5458 76.123 33.528 76.0875L33.2189 75.4713C33.2011 75.4358 33.1773 75.418 33.1507 75.4092L27.4305 73.5107C27.3683 73.49 27.309 73.5198 27.2884 73.582L27.0049 74.4361ZM35.2901 72.6825L33.5895 77.8065C33.5688 77.8688 33.5096 77.8985 33.4473 77.8779L26.8376 75.6841C26.6952 75.6369 26.5795 75.5392 26.5082 75.397L26.0089 74.4018C25.9376 74.2596 25.9285 74.1084 25.9758 73.9661L26.2208 73.2277C26.2415 73.1655 26.3007 73.1357 26.363 73.1564L26.6833 73.2627C26.7455 73.2834 26.8048 73.2537 26.8255 73.1914L26.9524 72.8089C26.9613 72.7822 26.9612 72.7525 26.9434 72.717L26.6343 72.1009C26.6165 72.0653 26.6165 72.0357 26.6253 72.009L26.8911 71.2083C26.9383 71.066 27.036 70.9503 27.1781 70.879L28.1734 70.3797C28.3156 70.3084 28.4668 70.2993 28.6091 70.3465L35.2188 72.5403C35.2811 72.5609 35.3108 72.6202 35.2901 72.6825ZM34.2456 74.0443C34.2544 74.0176 34.2544 73.988 34.2366 73.9524L33.9275 73.3363C33.9097 73.3008 33.8859 73.283 33.8593 73.2742L28.1391 71.3757C28.0769 71.355 28.0176 71.3847 27.997 71.447L27.7135 72.301C27.6929 72.3633 27.7226 72.4225 27.7848 72.4432L33.9764 74.4982C34.0387 74.5188 34.098 74.4891 34.1186 74.4268L34.2456 74.0443ZM18.3322 69.2274C18.3393 69.2666 18.357 69.2903 18.3801 69.3064L22.9219 72.4614C22.945 72.4775 22.9735 72.4858 23.0126 72.4788L23.691 72.3565C23.7301 72.3495 23.7539 72.3317 23.7699 72.3086L23.9998 71.9776C24.0373 71.9237 24.0255 71.8585 23.9716 71.8211L18.6138 68.0992C18.5599 68.0618 18.4947 68.0735 18.4573 68.1274L18.2273 68.4584C18.2113 68.4815 18.2029 68.5099 18.21 68.5491L18.3322 69.2274ZM26.6178 69.6876L24.2488 73.0978C24.1633 73.221 24.0369 73.3044 23.8803 73.3326L22.7845 73.53C22.6279 73.5582 22.4804 73.5242 22.3572 73.4387L17.6614 70.1767C17.5382 70.0911 17.4549 69.9647 17.4266 69.8081L17.2292 68.7123C17.201 68.5558 17.235 68.4082 17.3206 68.285L19.6895 64.8748C19.727 64.8209 19.7922 64.8092 19.8461 64.8466L20.816 65.5204C20.8699 65.5578 20.8817 65.6231 20.8443 65.677L20.2935 66.4699C20.2774 66.4929 20.2537 66.5107 20.2145 66.5177L19.5362 66.64C19.497 66.647 19.4733 66.6648 19.4572 66.6879L19.2273 67.0189C19.1899 67.0728 19.2016 67.138 19.2555 67.1754L24.6133 70.8973C24.6672 70.9347 24.7325 70.923 24.7699 70.8691L24.9998 70.5381C25.0159 70.515 25.0242 70.4866 25.0172 70.4474L24.8949 69.769C24.8879 69.7299 24.8962 69.7015 24.9123 69.6784L25.4631 68.8855C25.5005 68.8316 25.5657 68.8198 25.6196 68.8573L26.5896 69.5311C26.6435 69.5685 26.6552 69.6337 26.6178 69.6876ZM10.3599 62.0399C10.3087 62.081 10.2428 62.0738 10.2017 62.0226L9.63846 61.3208C9.59746 61.2696 9.60466 61.2038 9.65586 61.1627L13.8665 57.7835C13.9177 57.7424 13.9835 57.7496 14.0246 57.8008L15.3329 59.431C15.3505 59.4529 15.3608 59.4807 15.3564 59.5202L14.6751 65.7397C14.6708 65.7792 14.6811 65.807 14.6987 65.8289L15.2971 66.5746C15.3264 66.6111 15.3879 66.5978 15.3995 66.5524L15.5361 65.854C15.5463 65.8218 15.555 65.8027 15.5769 65.7851L18.4425 63.4854C18.4937 63.4443 18.5596 63.4515 18.6006 63.5027L19.1638 64.2045C19.2049 64.2556 19.1977 64.3215 19.1465 64.3626L14.9359 67.7418C14.8847 67.7829 14.8188 67.7757 14.7778 67.7245L13.4695 66.0943C13.4519 66.0724 13.4416 66.0446 13.4459 66.0051L14.1272 59.7856C14.1316 59.7461 14.1213 59.7183 14.1037 59.6964L13.5053 58.9507C13.4759 58.9142 13.4145 58.9274 13.4028 58.9728L13.2663 59.6713C13.2561 59.7035 13.2474 59.7226 13.2254 59.7402L10.3599 62.0399ZM5.26266 51.4888C5.23806 51.428 5.26386 51.367 5.32476 51.3424L7.22766 50.5726C7.27116 50.5551 7.32866 50.5723 7.35486 50.6122L8.62566 52.454C8.66416 52.4991 8.73366 52.471 8.72996 52.4118L8.36286 50.2045C8.35396 50.1575 8.38336 50.1052 8.42676 50.0876L10.3298 49.3179C10.3906 49.2933 10.4516 49.3191 10.4762 49.38L10.8136 50.2141C10.8382 50.275 10.8124 50.336 10.7515 50.3606L9.62186 50.8175C9.57846 50.8351 9.54906 50.8874 9.55796 50.9344L9.93186 54.0085L9.94596 54.0432L11.1534 57.0532C11.178 57.1141 11.239 57.1399 11.2998 57.1153L11.6735 56.9642C11.6995 56.9536 11.7221 56.9344 11.7376 56.8978L12.0067 56.2632C12.0222 56.2266 12.0448 56.2073 12.0708 56.1968L12.9658 55.8348C13.0267 55.8102 13.0877 55.836 13.1123 55.8969L13.5551 56.9917C13.5797 57.0525 13.5539 57.1136 13.493 57.1382L8.48806 59.1627C8.42716 59.1873 8.36616 59.1614 8.34156 59.1006L7.89876 58.0057C7.87406 57.9449 7.89996 57.8839 7.96076 57.8593L8.85576 57.4973C8.88186 57.4867 8.91146 57.4849 8.94806 57.5004L9.58266 57.7695C9.61926 57.785 9.64886 57.7831 9.67496 57.7726L10.0486 57.6214C10.1094 57.5968 10.1353 57.5358 10.1107 57.475L8.89456 54.4685L8.88396 54.4425L7.00336 51.9677C6.97706 51.9278 6.91956 51.9106 6.87606 51.9282L5.74646 52.3851C5.68566 52.4097 5.62466 52.3838 5.60006 52.323L5.26266 51.4888Z" fill="#2B2B2B"/>
</svg>
