<svg width="1920" height="522" viewBox="0 0 1920 522" fill="none" xmlns="http://www.w3.org/2000/svg">
<g clip-path="url(#clip0_1_1068)">
<g filter="url(#filter0_f_1_1068)">
<path d="M-15.5188 563.389C14.1199 509.53 58.132 464.926 113.124 437.446C271.421 358.345 624.578 199.446 901.145 202.84C1287.76 207.583 1979.79 412.39 1979.79 412.39L1842.58 1061.8L271.048 1051.74C21.3329 1050.14 -135.914 782.17 -15.5188 563.389Z" fill="url(#paint0_linear_1_1068)"/>
</g>
<g filter="url(#filter1_f_1_1068)">
<path d="M95.9624 719.396C127.572 660.255 178.314 613.703 240.939 589.725C414.486 523.28 785.469 393.598 1037.39 393.609C1393.31 393.624 1898.72 652.539 1898.72 652.539L1819.93 1142.22L356.217 1150.74C134.042 1152.03 -8.76662 915.344 95.9624 719.396Z" fill="white"/>
</g>
<g style="mix-blend-mode:soft-light">
<path d="M230.221 428.215C230.221 429.929 228.997 431.153 227.283 431.153H165.34C164.606 431.153 163.871 430.908 163.137 430.174L150.406 417.443C149.671 416.708 148.937 416.463 148.202 416.463H137.674C135.961 416.463 134.736 417.687 134.736 419.401V542.062C134.736 543.776 133.512 545 131.798 545H108.295C106.581 545 105.357 543.776 105.357 542.062V419.401C105.357 417.687 104.132 416.463 102.419 416.463H91.8908C91.1563 416.463 90.4218 416.708 89.6873 417.443L76.956 430.174C76.2215 430.908 75.487 431.153 74.7525 431.153H12.81C11.0962 431.153 9.87205 429.929 9.87205 428.215V401.039C9.87205 399.325 11.0962 398.101 12.81 398.101H227.283C228.997 398.101 230.221 399.325 230.221 401.039V428.215ZM470.271 424.543C470.271 426.256 469.047 427.481 467.333 427.481H267.55C265.836 427.481 264.612 428.705 264.612 430.419V440.946C264.612 441.681 264.857 442.415 265.591 443.15L278.323 455.881C279.057 456.616 279.792 456.86 280.526 456.86H452.643C454.357 456.86 455.581 458.085 455.581 459.798V483.302C455.581 485.016 454.357 486.24 452.643 486.24H267.55C265.836 486.24 264.612 487.464 264.612 489.178V499.706C264.612 500.441 264.857 501.175 265.591 501.91L278.323 514.641C279.057 515.375 279.792 515.62 280.526 515.62H467.333C469.047 515.62 470.271 516.844 470.271 518.558V542.062C470.271 543.776 469.047 545 467.333 545H252.86C251.146 545 249.922 543.776 249.922 542.062V401.039C249.922 399.325 251.146 398.101 252.86 398.101H467.333C469.047 398.101 470.271 399.325 470.271 401.039V424.543ZM514.945 402.508C517.883 399.57 521.556 398.101 525.473 398.101H707.383C709.097 398.101 710.321 399.325 710.321 401.039V439.233C710.321 440.946 709.097 442.171 707.383 442.171H696.855C696.121 442.171 695.386 441.926 694.652 441.191L681.921 428.46C681.186 427.725 680.452 427.481 679.717 427.481H507.6C505.886 427.481 504.662 428.705 504.662 430.419V440.946C504.662 441.681 504.907 442.415 505.642 443.15L518.373 455.881C519.107 456.616 519.352 457.35 519.352 458.085V512.682C519.352 514.396 520.576 515.62 522.29 515.62H679.717C680.452 515.62 681.186 515.375 681.921 514.641L694.652 501.91C695.386 501.175 696.121 500.93 696.855 500.93H707.383C709.097 500.93 710.321 502.154 710.321 503.868V542.062C710.321 543.776 709.097 545 707.383 545H525.473C521.556 545 517.883 543.531 514.945 540.593L494.379 520.027C491.441 517.089 489.972 513.417 489.972 509.499V433.601C489.972 429.684 491.441 426.012 494.379 423.074L514.945 402.508ZM913.646 401.039C913.646 399.325 914.871 398.101 916.584 398.101H947.433C949.147 398.101 950.371 399.325 950.371 401.039V542.062C950.371 543.776 949.147 545 947.433 545H916.584C914.871 545 913.646 543.776 913.646 542.062V516.844C913.646 516.11 913.891 515.375 914.626 514.641L927.357 501.91C928.092 501.175 928.336 500.441 928.336 499.706V489.178C928.336 487.464 927.112 486.24 925.398 486.24H754.995C753.281 486.24 752.057 487.464 752.057 489.178V499.706C752.057 500.441 752.302 501.175 753.037 501.91L765.768 514.641C766.502 515.375 766.747 516.11 766.747 516.844V542.062C766.747 543.776 765.523 545 763.809 545H732.96C731.247 545 730.022 543.776 730.022 542.062V401.039C730.022 399.325 731.247 398.101 732.96 398.101H763.809C765.523 398.101 766.747 399.325 766.747 401.039V426.256C766.747 426.991 766.502 427.725 765.768 428.46L753.037 441.191C752.302 441.926 752.057 442.66 752.057 443.395V453.922C752.057 455.636 753.281 456.86 754.995 456.86H925.398C927.112 456.86 928.336 455.636 928.336 453.922V443.395C928.336 442.66 928.092 441.926 927.357 441.191L914.626 428.46C913.891 427.725 913.646 426.991 913.646 426.256V401.039ZM1161.04 430.419C1161.04 428.705 1159.82 427.481 1158.1 427.481H987.701C985.987 427.481 984.763 428.705 984.763 430.419V440.946C984.763 441.681 985.007 442.415 985.742 443.15L998.473 455.881C999.208 456.616 999.942 456.86 1000.68 456.86H1158.1C1159.82 456.86 1161.04 455.636 1161.04 453.922V430.419ZM970.073 542.062V401.039C970.073 399.325 971.297 398.101 973.011 398.101H1154.92C1158.84 398.101 1162.51 399.57 1165.45 402.508L1186.01 423.074C1188.95 426.012 1190.42 429.684 1190.42 433.601V453.922C1190.42 455.636 1189.2 456.86 1187.48 456.86H1178.67C1176.96 456.86 1175.73 458.085 1175.73 459.798V470.326C1175.73 471.061 1175.98 471.795 1176.71 472.53L1189.44 485.261C1190.18 485.995 1190.42 486.73 1190.42 487.464V509.499C1190.42 513.417 1188.95 517.089 1186.01 520.027L1165.45 540.593C1162.51 543.531 1158.84 545 1154.92 545H973.011C971.297 545 970.073 543.776 970.073 542.062ZM984.763 499.706C984.763 500.441 985.007 501.175 985.742 501.91L998.473 514.641C999.208 515.375 999.942 515.62 1000.68 515.62H1158.1C1159.82 515.62 1161.04 514.396 1161.04 512.682V489.178C1161.04 487.464 1159.82 486.24 1158.1 486.24H987.701C985.987 486.24 984.763 487.464 984.763 489.178V499.706ZM1394.73 428.46C1393.99 427.725 1393.26 427.481 1392.52 427.481H1248.07C1247.34 427.481 1246.6 427.725 1245.87 428.46L1233.14 441.191C1232.4 441.926 1232.16 442.66 1232.16 443.395V453.922C1232.16 455.636 1233.38 456.86 1235.1 456.86H1405.5C1407.21 456.86 1408.44 455.636 1408.44 453.922V443.395C1408.44 442.66 1408.19 441.926 1407.46 441.191L1394.73 428.46ZM1210.12 542.062V433.601C1210.12 429.684 1211.59 426.012 1214.53 423.074L1235.1 402.508C1238.03 399.57 1241.71 398.101 1245.62 398.101H1394.97C1398.89 398.101 1402.56 399.57 1405.5 402.508L1426.06 423.074C1429 426.012 1430.47 429.684 1430.47 433.601V542.062C1430.47 543.776 1429.25 545 1427.53 545H1396.68C1394.97 545 1393.75 543.776 1393.75 542.062V516.844C1393.75 516.11 1393.99 515.375 1394.73 514.641L1407.46 501.91C1408.19 501.175 1408.44 500.441 1408.44 499.706V489.178C1408.44 487.464 1407.21 486.24 1405.5 486.24H1235.1C1233.38 486.24 1232.16 487.464 1232.16 489.178V499.706C1232.16 500.441 1232.4 501.175 1233.14 501.91L1245.87 514.641C1246.6 515.375 1246.85 516.11 1246.85 516.844V542.062C1246.85 543.776 1245.62 545 1243.91 545H1213.06C1211.35 545 1210.12 543.776 1210.12 542.062ZM1641.14 401.039C1641.14 399.325 1642.37 398.101 1644.08 398.101H1667.58C1669.3 398.101 1670.52 399.325 1670.52 401.039V542.062C1670.52 543.776 1669.3 545 1667.58 545H1612.99C1612.25 545 1611.52 544.755 1610.78 544.021L1495.22 428.46C1494.49 427.725 1493.75 427.481 1493.02 427.481H1468.05C1466.82 427.481 1466.09 428.95 1466.82 429.929L1478.82 444.129C1479.31 444.864 1479.55 445.353 1479.55 446.088V542.062C1479.55 543.776 1478.33 545 1476.61 545H1453.11C1451.4 545 1450.17 543.776 1450.17 542.062V401.039C1450.17 399.325 1451.4 398.101 1453.11 398.101H1507.71C1508.44 398.101 1509.18 398.346 1509.91 399.08L1625.47 514.641C1626.21 515.375 1626.94 515.62 1627.68 515.62H1652.65C1653.87 515.62 1654.61 514.151 1653.87 513.172L1641.88 498.972C1641.39 498.237 1641.14 497.747 1641.14 497.013V401.039ZM1907.63 398.101C1909.35 398.101 1910.57 399.325 1910.57 401.039V454.657C1910.57 455.881 1909.59 457.105 1908.37 457.35L1851.32 470.081C1849.85 470.571 1849.85 472.53 1851.32 473.019L1908.37 485.751C1909.59 485.995 1910.57 487.22 1910.57 488.444V542.062C1910.57 543.776 1909.35 545 1907.63 545H1884.13C1882.42 545 1881.19 543.776 1881.19 542.062V510.234C1881.19 509.01 1880.21 507.786 1878.99 507.541L1800.89 486.485H1799.91L1715.2 486.24C1713.48 486.24 1712.26 487.464 1712.26 489.178V499.706C1712.26 500.441 1712.5 501.175 1713.24 501.91L1725.97 514.641C1726.7 515.375 1726.95 516.11 1726.95 516.844V542.062C1726.95 543.776 1725.72 545 1724.01 545H1693.16C1691.45 545 1690.22 543.776 1690.22 542.062V401.039C1690.22 399.325 1691.45 398.101 1693.16 398.101H1724.01C1725.72 398.101 1726.95 399.325 1726.95 401.039V426.256C1726.95 426.991 1726.7 427.725 1725.97 428.46L1713.24 441.191C1712.5 441.926 1712.26 442.66 1712.26 443.395V453.922C1712.26 455.636 1713.48 456.86 1715.2 456.86H1799.91H1800.64L1878.99 435.56C1880.21 435.315 1881.19 434.091 1881.19 432.867V401.039C1881.19 399.325 1882.42 398.101 1884.13 398.101H1907.63Z" fill="black"/>
</g>
</g>
<defs>
<filter id="filter0_f_1_1068" x="-246.802" y="12.7861" width="2416.59" height="1239.02" filterUnits="userSpaceOnUse" color-interpolation-filters="sRGB">
<feFlood flood-opacity="0" result="BackgroundImageFix"/>
<feBlend mode="normal" in="SourceGraphic" in2="BackgroundImageFix" result="shape"/>
<feGaussianBlur stdDeviation="95" result="effect1_foregroundBlur_1_1068"/>
</filter>
<filter id="filter1_f_1_1068" x="-109.063" y="223.609" width="2177.78" height="1097.14" filterUnits="userSpaceOnUse" color-interpolation-filters="sRGB">
<feFlood flood-opacity="0" result="BackgroundImageFix"/>
<feBlend mode="normal" in="SourceGraphic" in2="BackgroundImageFix" result="shape"/>
<feGaussianBlur stdDeviation="85" result="effect1_foregroundBlur_1_1068"/>
</filter>
<linearGradient id="paint0_linear_1_1068" x1="1379.47" y1="320.886" x2="282.758" y2="342.218" gradientUnits="userSpaceOnUse">
<stop stop-color="#9334F8"/>
<stop offset="1" stop-color="#8A22E5"/>
</linearGradient>
<clipPath id="clip0_1_1068">
<rect width="1920" height="522" fill="white"/>
</clipPath>
</defs>
</svg>
