<svg width="40" height="40" viewBox="0 0 40 40" fill="none" xmlns="http://www.w3.org/2000/svg">
<path d="M17.9674 32.6699L21.2344 32.6699L21.2344 13.0681L24.5013 13.0681L24.5013 9.80114L21.2344 9.80114L21.2344 6.53418L17.9674 6.53418L17.9674 9.80114L14.7004 9.80114L14.7004 13.0681L17.9674 13.0681L17.9674 32.6699ZM11.4335 16.3351L11.4335 13.0681L14.7004 13.0681L14.7004 16.3351L11.4335 16.3351ZM11.4335 16.3351L11.4335 19.602L8.1665 19.602L8.1665 16.3351L11.4335 16.3351ZM27.7683 16.3351L27.7683 13.0681L24.5013 13.0681L24.5013 16.3351L27.7683 16.3351ZM27.7683 16.3351L27.7683 19.602L31.0352 19.602L31.0352 16.3351L27.7683 16.3351Z" fill="white"/>
</svg>
