<svg width="32" height="32" viewBox="0 0 32 32" fill="none" xmlns="http://www.w3.org/2000/svg">
<mask id="path-1-inside-1_1_625" fill="white">
<path d="M21.0525 18.25C21.1475 17.4663 21.2188 16.6825 21.2188 15.875C21.2188 15.0675 21.1475 14.2837 21.0525 13.5H25.0662C25.2563 14.26 25.375 15.0556 25.375 15.875C25.375 16.6944 25.2563 17.49 25.0662 18.25M18.9506 24.8525C19.6631 23.5344 20.2094 22.1094 20.5894 20.625H24.0925C22.942 22.6061 21.1168 24.1067 18.9506 24.8525ZM18.6538 18.25H13.0962C12.9775 17.4663 12.9062 16.6825 12.9062 15.875C12.9062 15.0675 12.9775 14.2719 13.0962 13.5H18.6538C18.7606 14.2719 18.8438 15.0675 18.8438 15.875C18.8438 16.6825 18.7606 17.4663 18.6538 18.25ZM15.875 25.3275C14.8894 23.9025 14.0938 22.3231 13.6069 20.625H18.1431C17.6562 22.3231 16.8606 23.9025 15.875 25.3275ZM11.125 11.125H7.6575C8.79589 9.13835 10.6199 7.63522 12.7875 6.8975C12.075 8.21563 11.5406 9.64062 11.125 11.125ZM7.6575 20.625H11.125C11.5406 22.1094 12.075 23.5344 12.7875 24.8525C10.6242 24.1071 8.80259 22.606 7.6575 20.625ZM6.68375 18.25C6.49375 17.49 6.375 16.6944 6.375 15.875C6.375 15.0556 6.49375 14.26 6.68375 13.5H10.6975C10.6025 14.2837 10.5312 15.0675 10.5312 15.875C10.5312 16.6825 10.6025 17.4663 10.6975 18.25M15.875 6.41063C16.8606 7.83563 17.6562 9.42688 18.1431 11.125H13.6069C14.0938 9.42688 14.8894 7.83563 15.875 6.41063ZM24.0925 11.125H20.5894C20.2171 9.65441 19.6668 8.23475 18.9506 6.8975C21.1356 7.64563 22.9525 9.15375 24.0925 11.125ZM15.875 4C9.30812 4 4 9.34375 4 15.875C4 19.0244 5.25111 22.0449 7.47811 24.2719C8.5808 25.3746 9.88989 26.2493 11.3306 26.8461C12.7714 27.4428 14.3156 27.75 15.875 27.75C19.0244 27.75 22.0449 26.4989 24.2719 24.2719C26.4989 22.0449 27.75 19.0244 27.75 15.875C27.75 14.3156 27.4428 12.7714 26.8461 11.3306C26.2493 9.88989 25.3746 8.5808 24.2719 7.47811C23.1692 6.37541 21.8601 5.50071 20.4194 4.90393C18.9786 4.30716 17.4344 4 15.875 4Z"/>
</mask>
<path d="M21.0525 18.25C21.1475 17.4663 21.2188 16.6825 21.2188 15.875C21.2188 15.0675 21.1475 14.2837 21.0525 13.5H25.0662C25.2563 14.26 25.375 15.0556 25.375 15.875C25.375 16.6944 25.2563 17.49 25.0662 18.25M18.9506 24.8525C19.6631 23.5344 20.2094 22.1094 20.5894 20.625H24.0925C22.942 22.6061 21.1168 24.1067 18.9506 24.8525ZM18.6538 18.25H13.0962C12.9775 17.4663 12.9062 16.6825 12.9062 15.875C12.9062 15.0675 12.9775 14.2719 13.0962 13.5H18.6538C18.7606 14.2719 18.8438 15.0675 18.8438 15.875C18.8438 16.6825 18.7606 17.4663 18.6538 18.25ZM15.875 25.3275C14.8894 23.9025 14.0938 22.3231 13.6069 20.625H18.1431C17.6562 22.3231 16.8606 23.9025 15.875 25.3275ZM11.125 11.125H7.6575C8.79589 9.13835 10.6199 7.63522 12.7875 6.8975C12.075 8.21563 11.5406 9.64062 11.125 11.125ZM7.6575 20.625H11.125C11.5406 22.1094 12.075 23.5344 12.7875 24.8525C10.6242 24.1071 8.80259 22.606 7.6575 20.625ZM6.68375 18.25C6.49375 17.49 6.375 16.6944 6.375 15.875C6.375 15.0556 6.49375 14.26 6.68375 13.5H10.6975C10.6025 14.2837 10.5312 15.0675 10.5312 15.875C10.5312 16.6825 10.6025 17.4663 10.6975 18.25M15.875 6.41063C16.8606 7.83563 17.6562 9.42688 18.1431 11.125H13.6069C14.0938 9.42688 14.8894 7.83563 15.875 6.41063ZM24.0925 11.125H20.5894C20.2171 9.65441 19.6668 8.23475 18.9506 6.8975C21.1356 7.64563 22.9525 9.15375 24.0925 11.125ZM15.875 4C9.30812 4 4 9.34375 4 15.875C4 19.0244 5.25111 22.0449 7.47811 24.2719C8.5808 25.3746 9.88989 26.2493 11.3306 26.8461C12.7714 27.4428 14.3156 27.75 15.875 27.75C19.0244 27.75 22.0449 26.4989 24.2719 24.2719C26.4989 22.0449 27.75 19.0244 27.75 15.875C27.75 14.3156 27.4428 12.7714 26.8461 11.3306C26.2493 9.88989 25.3746 8.5808 24.2719 7.47811C23.1692 6.37541 21.8601 5.50071 20.4194 4.90393C18.9786 4.30716 17.4344 4 15.875 4Z" fill="#FBFDFF"/>
<path d="M21.0525 13.5V13.2H20.7139L20.7547 13.5361L21.0525 13.5ZM25.0662 13.5L25.3573 13.4272L25.3005 13.2H25.0662V13.5ZM18.9506 24.8525L18.6867 24.7098L18.3209 25.3866L19.0483 25.1362L18.9506 24.8525ZM20.5894 20.625V20.325H20.3565L20.2987 20.5506L20.5894 20.625ZM24.0925 20.625L24.3519 20.7757L24.6136 20.325H24.0925V20.625ZM18.6538 18.25V18.55H18.9156L18.951 18.2905L18.6538 18.25ZM13.0962 18.25L12.7996 18.2949L12.8383 18.55H13.0962V18.25ZM13.0962 13.5V13.2H12.8389L12.7997 13.4544L13.0962 13.5ZM18.6538 13.5L18.9509 13.4589L18.9151 13.2H18.6538V13.5ZM15.875 25.3275L15.6283 25.4982L15.875 25.8549L16.1217 25.4982L15.875 25.3275ZM13.6069 20.625V20.325H13.2088L13.3185 20.7077L13.6069 20.625ZM18.1431 20.625L18.4315 20.7077L18.5412 20.325H18.1431V20.625ZM11.125 11.125V11.425H11.3525L11.4139 11.2059L11.125 11.125ZM7.6575 11.125L7.39721 10.9758L7.13983 11.425H7.6575V11.125ZM12.7875 6.8975L13.0514 7.04016L13.4153 6.36693L12.6908 6.6135L12.7875 6.8975ZM7.6575 20.625V20.325H7.13757L7.39777 20.7751L7.6575 20.625ZM11.125 20.625L11.4139 20.5441L11.3525 20.325H11.125V20.625ZM12.7875 24.8525L12.6898 25.1361L13.4173 25.3868L13.0514 24.7098L12.7875 24.8525ZM6.68375 13.5V13.2H6.44952L6.39271 13.4272L6.68375 13.5ZM10.6975 13.5L10.9953 13.5361L11.0361 13.2H10.6975V13.5ZM15.875 6.41063L16.1217 6.23997L15.875 5.88325L15.6283 6.23997L15.875 6.41063ZM18.1431 11.125V11.425H18.5412L18.4315 11.0423L18.1431 11.125ZM13.6069 11.125L13.3185 11.0423L13.2088 11.425H13.6069V11.125ZM24.0925 11.125V11.425H24.6125L24.3522 10.9748L24.0925 11.125ZM20.5894 11.125L20.2985 11.1986L20.3558 11.425H20.5894V11.125ZM18.9506 6.8975L19.0478 6.61368L18.3259 6.36651L18.6862 7.03914L18.9506 6.8975ZM15.875 4V3.7V4ZM15.875 27.75V28.05V27.75ZM21.0525 18.25L21.3503 18.2861C21.446 17.4969 21.5187 16.6997 21.5187 15.875H21.2188H20.9188C20.9188 16.6652 20.849 17.4356 20.7547 18.2139L21.0525 18.25ZM21.2188 15.875H21.5187C21.5187 15.0503 21.446 14.2531 21.3503 13.4639L21.0525 13.5L20.7547 13.5361C20.849 14.3144 20.9188 15.0848 20.9188 15.875H21.2188ZM21.0525 13.5V13.8H25.0662V13.5V13.2H21.0525V13.5ZM25.0662 13.5L24.7752 13.5728C24.9604 14.3137 25.075 15.0846 25.075 15.875H25.375H25.675C25.675 15.0267 25.5521 14.2063 25.3573 13.4272L25.0662 13.5ZM25.375 15.875H25.075C25.075 16.6654 24.9604 17.4363 24.7752 18.1772L25.0662 18.25L25.3573 18.3228C25.5521 17.5437 25.675 16.7233 25.675 15.875H25.375ZM18.9506 24.8525L19.2145 24.9952C19.9395 23.654 20.4944 22.2059 20.88 20.6994L20.5894 20.625L20.2987 20.5506C19.9244 22.0129 19.3868 23.4148 18.6867 24.7098L18.9506 24.8525ZM20.5894 20.625V20.925H24.0925V20.625V20.325H20.5894V20.625ZM24.0925 20.625L23.8331 20.4743C22.7188 22.3931 20.951 23.8465 18.853 24.5688L18.9506 24.8525L19.0483 25.1362C21.2826 24.3669 23.1652 22.8191 24.3519 20.7757L24.0925 20.625ZM18.6538 18.25V17.95H13.0962V18.25V18.55H18.6538V18.25ZM13.0962 18.25L13.3929 18.2051C13.2759 17.4331 13.2063 16.6647 13.2063 15.875H12.9062H12.6062C12.6062 16.7003 12.6791 17.4994 12.7996 18.2949L13.0962 18.25ZM12.9062 15.875H13.2063C13.2063 15.085 13.276 14.3048 13.3928 13.5456L13.0962 13.5L12.7997 13.4544C12.679 14.2389 12.6062 15.05 12.6062 15.875H12.9062ZM13.0962 13.5V13.8H18.6538V13.5V13.2H13.0962V13.5ZM18.6538 13.5L18.3566 13.5411C18.4626 14.307 18.5437 15.0873 18.5437 15.875H18.8438H19.1438C19.1438 15.0477 19.0586 14.2367 18.9509 13.4589L18.6538 13.5ZM18.8438 15.875H18.5437C18.5437 16.6625 18.4627 17.4308 18.3565 18.2095L18.6538 18.25L18.951 18.2905C19.0586 17.5017 19.1438 16.7025 19.1438 15.875H18.8438ZM15.875 25.3275L16.1217 25.1568C15.1519 23.7547 14.3719 22.2047 13.8953 20.5423L13.6069 20.625L13.3185 20.7077C13.8156 22.4416 14.6268 24.0503 15.6283 25.4982L15.875 25.3275ZM13.6069 20.625V20.925H18.1431V20.625V20.325H13.6069V20.625ZM18.1431 20.625L17.8547 20.5423C17.3781 22.2047 16.5981 23.7547 15.6283 25.1568L15.875 25.3275L16.1217 25.4982C17.1232 24.0503 17.9344 22.4416 18.4315 20.7077L18.1431 20.625ZM11.125 11.125V10.825H7.6575V11.125V11.425H11.125V11.125ZM7.6575 11.125L7.91779 11.2742C9.01987 9.35088 10.7857 7.89569 12.8842 7.1815L12.7875 6.8975L12.6908 6.6135C10.4541 7.37475 8.5719 8.92583 7.39721 10.9758L7.6575 11.125ZM12.7875 6.8975L12.5236 6.75484C11.7981 8.09709 11.2562 9.54387 10.8361 11.0441L11.125 11.125L11.4139 11.2059C11.8251 9.73738 12.3519 8.33416 13.0514 7.04016L12.7875 6.8975ZM7.6575 20.625V20.925H11.125V20.625V20.325H7.6575V20.625ZM11.125 20.625L10.8361 20.7059C11.2562 22.2061 11.7981 23.6529 12.5236 24.9952L12.7875 24.8525L13.0514 24.7098C12.3519 23.4158 11.8251 22.0126 11.4139 20.5441L11.125 20.625ZM12.7875 24.8525L12.8852 24.5689C10.7902 23.847 9.02616 22.3933 7.91723 20.4749L7.6575 20.625L7.39777 20.7751C8.57902 22.8187 10.4581 24.3672 12.6898 25.1361L12.7875 24.8525ZM6.68375 18.25L6.97479 18.1772C6.78956 17.4363 6.675 16.6654 6.675 15.875H6.375H6.075C6.075 16.7233 6.19794 17.5437 6.39271 18.3228L6.68375 18.25ZM6.375 15.875H6.675C6.675 15.0846 6.78956 14.3137 6.97479 13.5728L6.68375 13.5L6.39271 13.4272C6.19794 14.2063 6.075 15.0267 6.075 15.875H6.375ZM6.68375 13.5V13.8H10.6975V13.5V13.2H6.68375V13.5ZM10.6975 13.5L10.3997 13.4639C10.304 14.2531 10.2312 15.0503 10.2312 15.875H10.5312H10.8313C10.8313 15.0848 10.901 14.3144 10.9953 13.5361L10.6975 13.5ZM10.5312 15.875H10.2312C10.2312 16.6997 10.304 17.4969 10.3997 18.2861L10.6975 18.25L10.9953 18.2139C10.901 17.4356 10.8313 16.6652 10.8313 15.875H10.5312ZM15.875 6.41063L15.6283 6.58128C16.5977 7.9829 17.378 9.54478 17.8547 11.2077L18.1431 11.125L18.4315 11.0423C17.9345 9.30898 17.1235 7.68835 16.1217 6.23997L15.875 6.41063ZM18.1431 11.125V10.825H13.6069V11.125V11.425H18.1431V11.125ZM13.6069 11.125L13.8953 11.2077C14.372 9.54478 15.1523 7.9829 16.1217 6.58128L15.875 6.41063L15.6283 6.23997C14.6265 7.68835 13.8155 9.30898 13.3185 11.0423L13.6069 11.125ZM24.0925 11.125V10.825H20.5894V11.125V11.425H24.0925V11.125ZM20.5894 11.125L20.8802 11.0514C20.502 9.55714 19.9428 8.11463 19.2151 6.75586L18.9506 6.8975L18.6862 7.03914C19.3908 8.35487 19.9323 9.75169 20.2985 11.1986L20.5894 11.125ZM18.9506 6.8975L18.8534 7.18132C20.9694 7.90582 22.7288 9.36621 23.8328 11.2752L24.0925 11.125L24.3522 10.9748C23.1762 8.94129 21.3018 7.38543 19.0478 6.61368L18.9506 6.8975ZM15.875 4V3.7C9.14185 3.7 3.7 9.17865 3.7 15.875H4H4.3C4.3 9.50885 9.4744 4.3 15.875 4.3V4ZM4 15.875H3.7C3.7 19.104 4.98272 22.2008 7.26597 24.484L7.47811 24.2719L7.69024 24.0598C5.51951 21.889 4.3 18.9449 4.3 15.875H4ZM7.47811 24.2719L7.26597 24.484C8.39653 25.6146 9.73869 26.5114 11.2158 27.1232L11.3306 26.8461L11.4454 26.5689C10.0411 25.9872 8.76508 25.1346 7.69024 24.0598L7.47811 24.2719ZM11.3306 26.8461L11.2158 27.1232C12.693 27.7351 14.2762 28.05 15.875 28.05V27.75V27.45C14.3549 27.45 12.8498 27.1506 11.4454 26.5689L11.3306 26.8461ZM15.875 27.75V28.05C19.104 28.05 22.2008 26.7673 24.484 24.484L24.2719 24.2719L24.0598 24.0598C21.889 26.2305 18.9449 27.45 15.875 27.45V27.75ZM24.2719 24.2719L24.484 24.484C26.7673 22.2008 28.05 19.104 28.05 15.875H27.75H27.45C27.45 18.9449 26.2305 21.889 24.0598 24.0598L24.2719 24.2719ZM27.75 15.875H28.05C28.05 14.2762 27.7351 12.693 27.1232 11.2158L26.8461 11.3306L26.5689 11.4454C27.1506 12.8498 27.45 14.3549 27.45 15.875H27.75ZM26.8461 11.3306L27.1232 11.2158C26.5114 9.73869 25.6146 8.39653 24.484 7.26597L24.2719 7.47811L24.0598 7.69024C25.1346 8.76508 25.9872 10.0411 26.5689 11.4454L26.8461 11.3306ZM24.2719 7.47811L24.484 7.26597C23.3535 6.13542 22.0113 5.23862 20.5342 4.62677L20.4194 4.90393L20.3046 5.18109C21.7089 5.76279 22.9849 6.6154 24.0598 7.69024L24.2719 7.47811ZM20.4194 4.90393L20.5342 4.62677C19.057 4.01492 17.4738 3.7 15.875 3.7V4V4.3C17.3951 4.3 18.9002 4.5994 20.3046 5.18109L20.4194 4.90393Z" fill="#1E1E1E" mask="url(#path-1-inside-1_1_625)"/>
</svg>
