<svg width="31" height="34" viewBox="0 0 31 34" fill="none" xmlns="http://www.w3.org/2000/svg">
<path d="M15.3559 0.0182651L15.2921 0L15.2282 0.0182651L0.0555954 3.95969L0.000855768 12.7184C-0.0265152 15.5741 0.603006 18.3932 1.84382 20.957C2.59196 22.4715 3.47695 23.9131 4.48968 25.2634C7.52785 29.3325 11.3415 32.1883 15.0184 33.4929C15.0366 33.5112 15.0549 33.5111 15.0822 33.5111C15.1005 33.5111 15.1279 33.5112 15.1461 33.4929C18.8412 32.243 22.6914 29.4329 25.7752 25.4003C26.8061 24.0591 27.7094 22.6266 28.4666 21.1303C29.7439 18.5757 30.41 15.7656 30.4191 12.9191L30.4738 4.16038L15.3559 0.0182651ZM23.0107 20.1359L15.1826 24.5517L7.43662 19.9808L7.52787 11.0031L15.3651 6.59638L23.111 11.1582L23.0198 20.1359H23.0107Z" fill="white"/>
</svg>
